<?xml version="1.0" encoding="UTF-8"?><svg xmlns="http://www.w3.org/2000/svg" viewBox="0 0 116.6 39.26"><defs><style>.d{fill:#0284c7;}.e{fill:#231f20;}</style></defs><g id="a"/><g id="b"><g id="c"><g><path d="M12.03,9.53v7.45h10.76v3.71H12.03v12.44h-3.82V5.82H24.27v3.71H12.03Z"/><path d="M24.66,23.37c0-5.58,4.52-10.06,10.06-10.06s10.02,4.49,10.02,10.06v9.75h-3.82v-3.08c-.94,1.91-3.43,3.39-6.2,3.39-5.54,0-10.06-4.48-10.06-10.06Zm16.3,0c0-3.55-2.61-6.36-6.2-6.36s-6.28,2.81-6.28,6.36,2.73,6.36,6.28,6.36,6.2-2.81,6.2-6.36Z"/><path d="M47.48,8.59c0-1.33,1.01-2.34,2.34-2.34s2.3,1.01,2.3,2.34-1.01,2.34-2.3,2.34-2.34-1.01-2.34-2.34Zm.43,5.03h3.82v19.5h-3.82V13.62Z"/><path d="M55.24,33.12V5.82h3.82v27.3h-3.82Z"/><path d="M71.11,13.31c5.03,0,9.87,3.67,10.06,9.71,0,.66-.04,1.25-.12,1.75h-15.76c.31,2.89,2.65,4.95,5.81,4.95,2.15,0,3.67-.86,4.68-1.95l4.56,.04c-1.68,3.35-5.19,5.62-9.13,5.62-5.62,0-10.02-4.48-10.02-10.02s4.29-10.1,9.91-10.1Zm5.97,8.35c-.7-2.65-3.04-4.64-5.85-4.64-3.04,0-5.23,1.99-5.93,4.64h11.78Z"/><path d="M93.19,33.44c-5.54,0-10.06-4.48-10.06-10.06s4.52-10.06,10.06-10.06c2.61,0,4.72,1.09,6.16,2.81V5.82h3.86V23.37c0,5.58-4.49,10.06-10.02,10.06Zm-6.24-10.06c0,3.55,2.65,6.36,6.24,6.36s6.24-2.81,6.24-6.36-2.73-6.36-6.24-6.36-6.24,2.81-6.24,6.36Z"/><path class="d" d="M104.57,28.37h3.82v4.76h-3.82v-4.76Z"/></g><path class="e" d="M116.6,39.26H0V0H116.6V39.26ZM3.07,36.26H113.53V3H3.07V36.26Z"/></g></g></svg>